<?xml version="1.0" encoding="UTF-8" standalone="no"?>
<!-- Created with Inkscape (http://www.inkscape.org/) -->

<svg
   xmlns:dc="http://purl.org/dc/elements/1.1/"
   xmlns:cc="http://creativecommons.org/ns#"
   xmlns:rdf="http://www.w3.org/1999/02/22-rdf-syntax-ns#"
   xmlns:svg="http://www.w3.org/2000/svg"
   xmlns="http://www.w3.org/2000/svg"
   xmlns:sodipodi="http://sodipodi.sourceforge.net/DTD/sodipodi-0.dtd"
   xmlns:inkscape="http://www.inkscape.org/namespaces/inkscape"
   width="150mm"
   height="120mm"
   viewBox="0 0 150 120"
   version="1.1"
   id="svg8"
   inkscape:version="0.92.1 r15371"
   sodipodi:docname="jmv.svg">
  <defs
     id="defs2">
    <inkscape:perspective
       sodipodi:type="inkscape:persp3d"
       inkscape:vp_x="-3.0238095 : 84.999998 : 1"
       inkscape:vp_y="0 : 999.99999 : 0"
       inkscape:vp_z="206.97619 : 84.999998 : 1"
       inkscape:persp3d-origin="101.97619 : 35.499999 : 1"
       id="perspective3695" />
  </defs>
  <sodipodi:namedview
     id="base"
     pagecolor="#ffffff"
     bordercolor="#666666"
     borderopacity="1.0"
     inkscape:pageopacity="0.0"
     inkscape:pageshadow="2"
     inkscape:zoom="0.47750992"
     inkscape:cx="483.9378"
     inkscape:cy="554.71384"
     inkscape:document-units="mm"
     inkscape:current-layer="layer1"
     showgrid="false"
     inkscape:window-width="1920"
     inkscape:window-height="1017"
     inkscape:window-x="-8"
     inkscape:window-y="-8"
     inkscape:window-maximized="1"
     units="in" />
  <metadata
     id="metadata5">
    <rdf:RDF>
      <cc:Work
         rdf:about="">
        <dc:format>image/svg+xml</dc:format>
        <dc:type
           rdf:resource="http://purl.org/dc/dcmitype/StillImage" />
        <dc:title></dc:title>
      </cc:Work>
    </rdf:RDF>
  </metadata>
  <g
     inkscape:label="Capa 1"
     inkscape:groupmode="layer"
     id="layer1"
     transform="translate(0,-177)">
    <path
       style="fill:#008000;stroke-width:0.26458332"
       id="path3729"
       d="m 4.7550122,280.36448 c 1.808835,-5.776 4.123169,-11.32272 6.7817548,-16.75363 1.887533,-3.61493 3.817213,-7.31948 6.53261,-10.40216 1.507334,-1.71122 2.028103,-2.00368 3.780645,-3.40101 5.323268,-3.12391 10.616806,-7.59071 17.105524,-7.73342 1.737468,-0.0382 4.585054,0.33228 6.237782,0.82517 1.181119,0.35225 2.295671,0.89799 3.443507,1.34698 7.187335,3.48266 12.976316,9.04524 18.867866,14.31001 4.12332,3.94977 8.77154,7.17145 13.81693,9.80377 3.50234,1.94519 7.37153,2.50159 11.299,2.80484 2.93993,0.0212 5.863,-0.62936 8.559799,-1.8094 1.24038,-0.54275 4.80757,-2.49299 3.59615,-1.88834 -6.367009,3.17798 -7.096899,4.22307 -1.3374,-0.48234 8.69008,-8.07649 14.61515,-18.49844 20.8146,-28.48455 3.83941,-6.46154 8.18038,-12.58833 12.58468,-18.6691 1.38349,-1.95899 2.71192,-3.95447 4.17706,-5.85378 0,0 10.23223,-4.35809 10.23223,-4.35809 v 0 c -1.60386,1.8486 -2.95835,3.8831 -4.37584,5.87591 -4.54914,6.11576 -9.09316,12.24183 -13.03396,18.77863 -6.28468,9.96658 -12.15372,20.43331 -20.61534,28.75806 -7.18254,6.19339 -3.74576,3.60189 -16.795999,11.11784 -3.89506,2.24326 -8.25734,3.55066 -12.76313,3.40845 -4.0474,-0.3695 -7.98528,-1.10923 -11.55577,-3.1744 -5.01789,-2.77432 -9.58916,-6.1894 -13.733672,-10.16414 -5.777892,-5.20691 -11.486806,-10.70978 -18.666725,-13.95147 -1.132649,-0.38328 -2.238607,-0.85706 -3.397948,-1.14986 -2.884149,-0.72841 -6.005589,-0.78584 -8.882846,-0.008 -0.863467,0.23352 -3.23865,1.46032 -2.515957,0.93323 2.237177,-1.63163 4.743312,-2.85828 7.114966,-4.28742 -1.770957,1.26795 -2.384843,1.58922 -3.924162,3.1816 -2.842715,2.9407 -4.798616,6.63843 -6.712747,10.2086 -2.635363,5.31118 -5.08177,10.6975 -6.531618,16.47347 0,0 -10.1019898,4.74428 -10.1019898,4.74428 z"
       inkscape:connector-curvature="0" />
    <flowRoot
       xml:space="preserve"
       id="flowRoot3680"
       style="font-style:normal;font-weight:normal;font-size:40px;line-height:1.25;font-family:sans-serif;letter-spacing:0px;word-spacing:0px;fill:#000000;fill-opacity:1;stroke:none"
       transform="matrix(0.26458333,0,0,0.26458333,-28.559304,95.925539)"><flowRegion
         id="flowRegion3682"><rect
           id="rect3684"
           width="557.14288"
           height="322.85718"
           x="100"
           y="265.37683"
           ry="42.857155" /></flowRegion><flowPara
         id="flowPara3686"
         style="font-size:266.66665649px;fill:#000000">JMV</flowPara></flowRoot>    <text
       xml:space="preserve"
       style="font-style:normal;font-weight:normal;font-size:10.58333302px;line-height:1.25;font-family:sans-serif;letter-spacing:0px;word-spacing:0px;fill:#008000;fill-opacity:1;stroke:none;stroke-width:0.26458332;"
       x="1.6871922"
       y="231.03841"
       id="text3752"><tspan
         sodipodi:role="line"
         id="tspan3750"
         x="1.6871922"
         y="231.03841"
         style="font-size:70.55555725px;stroke-width:0.26458332;fill:#008000;">JMV</tspan></text>
  </g>
</svg>
